<svg width="350" height="200" viewBox="0 0 307 67" fill="none" xmlns="http://www.w3.org/2000/svg">
<g clip-path="url(#clip0_3223_60259)">
<path d="M58.41 8.15006C60.91 5.63006 63.42 3.13006 65.89 0.580056C66.45 5.6386e-05 66.96 -0.109944 67.73 0.100056C75.47 2.21006 83.21 4.29006 90.97 6.32006C91.81 6.54006 92.09 7.01006 92.28 7.71006C94.34 15.4001 96.38 23.0901 98.47 30.7701C98.7 31.6201 98.54 32.1701 97.93 32.7801C87.33 43.3401 76.75 53.9201 66.19 64.5201C65.56 65.15 64.96 65.2401 64.16 65.0201C56.31 62.9001 48.45 60.7901 40.59 58.6901C40.4 58.6801 40.26 58.5801 40.17 58.4201C40.22 57.4201 41.03 56.9401 41.62 56.3401C48.76 49.1801 55.9 42.0101 63.1 34.9001C64.24 33.7801 64.53 32.7601 64.13 31.2001C62.33 24.2301 60.37 17.2901 58.54 10.3301C58.35 9.63006 57.95 8.90006 58.42 8.15006H58.41Z" fill="#812ABC"/>
<path d="M40.28 58.38C40.38 58.49 40.49 58.59 40.59 58.7C39.82 58.74 39.35 59.25 38.85 59.75C36.8 61.82 34.71 63.85 32.69 65.94C32.05 66.6 31.5 66.8 30.56 66.54C23.05 64.49 15.52 62.5 7.98998 60.52C6.93998 60.25 6.32998 59.83 6.03998 58.68C4.14998 51.37 2.19998 44.08 0.179982 36.8C-0.250018 35.26 0.049982 34.25 1.18998 33.12C11.37 23.03 21.49 12.91 31.59 2.75C32.62 1.72 33.5 1.43 34.95 1.84C42.51 3.93 50.1 5.89 57.68 7.9C57.83 7.94 57.96 8.09 58.1 8.19C58.25 9.26 57.36 9.71 56.78 10.29C49.68 17.42 42.58 24.56 35.41 31.63C34.18 32.84 33.81 33.94 34.29 35.63C36.23 42.39 37.95 49.21 39.77 56.01C39.98 56.8 40.15 57.59 40.29 58.39L40.28 58.38Z" fill="#40155E"/>
<path d="M40.28 58.3801C39.56 57.9701 39.65 57.2001 39.47 56.5501C37.53 49.3501 35.62 42.1401 33.64 34.9501C33.29 33.6901 33.51 32.8701 34.47 31.9201C42.01 24.4801 49.47 16.9801 56.96 9.49011C57.37 9.08011 57.72 8.62011 58.09 8.18011C58.19 8.15011 58.3 8.14011 58.41 8.15011C60.5 15.9701 62.56 23.8001 64.72 31.6101C65.09 32.9601 64.84 33.8201 63.85 34.8001C56.32 42.2401 48.85 49.7501 41.36 57.2401C40.99 57.6101 40.64 58.0001 40.29 58.3801H40.28Z" fill="#9852C8"/>
<path d="M217.75 28.8801H180.29C179.08 28.8801 177.99 29.3801 177.2 30.1801C176.83 30.5601 176.52 31.0101 176.31 31.5001C176.28 31.5501 176.27 31.5901 176.25 31.6401C176.04 32.1601 175.92 32.7301 175.92 33.3201C175.92 35.9101 177.99 38.0001 180.54 38.0001H218C219.21 38.0001 220.3 37.5001 221.09 36.7001C221.46 36.3201 221.77 35.8701 221.98 35.3801C222.01 35.3301 222.02 35.2901 222.04 35.2401C222.25 34.7201 222.37 34.1501 222.37 33.5601C222.37 30.9701 220.3 28.8801 217.75 28.8801ZM217.75 12.4601H180.29C179.08 12.4601 177.99 12.9601 177.2 13.7601C176.83 14.1401 176.52 14.5901 176.31 15.0801C176.28 15.1301 176.27 15.1701 176.25 15.2201C176.04 15.7401 175.92 16.3101 175.92 16.9001C175.92 19.4901 177.99 21.5801 180.54 21.5801H218C219.21 21.5801 220.3 21.0801 221.09 20.2801C221.46 19.9001 221.77 19.4501 221.98 18.9601C222.01 18.9101 222.02 18.8701 222.04 18.8201C222.25 18.3001 222.37 17.7301 222.37 17.1401C222.37 14.5501 220.3 12.4601 217.75 12.4601ZM217.75 45.0401H180.29C179.08 45.0401 177.99 45.5401 177.2 46.3401C176.83 46.7201 176.52 47.1701 176.31 47.6601C176.28 47.7101 176.27 47.7501 176.25 47.8001C176.04 48.3201 175.92 48.8901 175.92 49.4801C175.92 52.0701 177.99 54.1601 180.54 54.1601H218C219.21 54.1601 220.3 53.6601 221.09 52.8601C221.46 52.4801 221.77 52.0301 221.98 51.5401C222.01 51.4901 222.02 51.4501 222.04 51.4001C222.25 50.8801 222.37 50.3101 222.37 49.7201C222.37 47.1301 220.3 45.0401 217.75 45.0401Z" fill="#40155E"/>
<path d="M302.22 12.4601H263.99C262.78 12.4601 261.69 12.9701 260.9 13.8001C260.53 14.1901 260.22 14.6501 260.01 15.1601C259.98 15.2101 259.97 15.2501 259.95 15.3001C259.74 15.8401 259.62 16.4201 259.62 17.0301C259.62 19.6901 261.69 21.8501 264.24 21.8501H302.47C303.68 21.8501 304.77 21.3401 305.56 20.5101C305.93 20.1201 306.24 19.6601 306.45 19.1501C306.48 19.1001 306.49 19.0601 306.51 19.0101C306.72 18.4701 306.84 17.8901 306.84 17.2801C306.84 14.6201 304.77 12.4601 302.22 12.4601Z" fill="#40155E"/>
<path d="M246.25 16.9001V49.4701C246.25 52.0601 244.01 54.1601 241.24 54.1601C240.6 54.1601 240 54.0401 239.44 53.8301C239.39 53.8101 239.34 53.7901 239.29 53.7601C238.76 53.5401 238.29 53.2301 237.88 52.8501C237.02 52.0501 236.49 50.9401 236.49 49.7201V17.1601C236.49 14.5701 238.73 12.4701 241.5 12.4701C242.14 12.4701 242.74 12.5901 243.3 12.8001C243.35 12.8201 243.4 12.8401 243.45 12.8701C243.98 13.0901 244.45 13.4001 244.86 13.7801C245.72 14.5801 246.25 15.6901 246.25 16.9101V16.9001Z" fill="#40155E"/>
<path d="M162.56 42.3101C162.56 50.9101 157.94 54.2901 149.73 54.2901H116.38C113.83 54.2901 111.76 52.2601 111.76 49.7401C111.76 49.1601 111.88 48.6101 112.09 48.1101C112.11 48.0601 112.13 48.0201 112.15 47.9701C112.36 47.4901 112.67 47.0601 113.04 46.6901C113.83 45.9101 114.92 45.4301 116.13 45.4301H134.85C139.47 45.4301 144.09 45.4301 149.48 45.1601C151.79 45.1601 153.07 44.6501 153.07 42.0401C153.07 40.7401 152.81 39.9501 152.31 39.4301C151.8 38.9101 151.03 38.3801 149.22 38.3801L124.59 36.8201C116.63 36.5601 111.76 32.6501 111.76 24.3101C111.76 15.9701 116.63 12.3301 124.59 12.3301H157.95C160.5 12.3301 162.57 14.4201 162.57 17.0201C162.57 17.6101 162.45 18.1801 162.24 18.6901C162.02 19.2401 161.69 19.7401 161.28 20.1501C160.49 20.9501 159.4 21.4501 158.19 21.4501H125.09C123.29 21.4501 122.53 21.7101 122.02 22.2301C121.76 22.5001 121.25 23.2801 121.25 24.5801C121.25 25.8801 121.51 26.6701 122.02 27.1901C122.53 27.7101 123.3 28.2301 125.36 28.2301L149.99 29.7901C157.69 30.0501 162.56 33.9601 162.56 42.3001H162.55L162.56 42.3101Z" fill="#40155E"/>
<path d="M306.33 32.7901C306.33 33.3801 306.21 33.9501 306 34.4801C305.98 34.5301 305.96 34.5701 305.94 34.6201C305.73 35.1101 305.42 35.5601 305.05 35.9401C304.33 36.6801 303.35 37.1601 302.26 37.2401H284.13V37.1701H273.75C272.54 37.1701 271.45 37.6501 270.66 38.4301C270.29 38.8001 269.98 39.2301 269.77 39.7101C269.74 39.7601 269.73 39.8001 269.71 39.8501C269.51 40.3301 269.4 40.8301 269.39 41.3701V49.4801C269.39 52.0701 267.15 54.1701 264.39 54.1701C263.75 54.1701 263.15 54.0501 262.59 53.8401C262.54 53.8201 262.49 53.8001 262.44 53.7701C261.91 53.5501 261.44 53.2401 261.03 52.8601C260.17 52.0601 259.64 50.9501 259.64 49.7301V32.5501C259.64 31.9601 259.76 31.3901 259.97 30.8601C259.99 30.8101 260.01 30.7701 260.03 30.7201C260.24 30.2301 260.55 29.7801 260.92 29.4001C261.71 28.6001 262.8 28.1001 264.01 28.1001H301.73C304.28 28.1001 306.35 30.2001 306.35 32.7901H306.33Z" fill="#40155E"/>
</g>
<defs>
<clipPath id="clip0_3223_60259">
<rect width="306.84" height="66.64" fill="white"/>
</clipPath>
</defs>
</svg>
